PathFileType	4	(X/Y/Z)	7_coords_data.trc
DataRate	CameraRate	NumFrames	NumMarkers	Units	OrigDataRate	OrigDataStartFrame	OrigNumFrames
30.0	30.0	9	21	m	30.0	22	86
Frame#	Time	THUMB_TIP	THUMB_IP	THUMB_MCP	THUMB_CMC	INDEX_TIP	INDEX_DIP	INDEX_PIP	INDEX_MCP	MIDDLE_TIP	MIDDLE_DIP	MIDDLE_PIP	MIDDLE_MCP	RING_TIP	RING_DIP	RING_PIP	RING_MCP	PINKY_TIP	PINKY_DIP	PINKY_PIP	PINKY_MCP	WRIST
X1	Y1	Z1	X2	Y2	Z2	X3	Y3	Z3	X4	Y4	Z4	X5	Y5	Z5	X6	Y6	Z6	X7	Y7	Z7	X8	Y8	Z8	X9	Y9	Z9	X10	Y10	Z10	X11	Y11	Z11	X12	Y12	Z12	X13	Y13	Z13	X14	Y14	Z14	X15	Y15	Z15	X16	Y16	Z16	X17	Y17	Z17	X18	Y18	Z18	X19	Y19	Z19	X20	Y20	Z20	X21	Y21	Z21
20	0.6999999999999968	0.5313214008966991	-0.026085872711841457	-0.1350161906613333	0.5084215058703858	-0.02431949539590933	-0.13432719214058547	0.4812389428211553	-0.018382668595817303	-0.12037433029721034	0.4693015680699615	-0.029770657781044013	-0.07892915221378638	0.5568021579068059	0.07309521372896688	-0.15004626184476277	0.5438580242108288	0.06160481456398187	-0.14471520848825048	0.5267847726197679	0.04607527129010913	-0.13474790199084358	0.5009746199143313	0.01895117488153325	-0.11445614244810481	0.5139283104619957	-0.01652682987132592	-0.13199321440286638	0.5308353030383169	-0.010900941695450583	-0.13523404520017146	0.5450032471487646	0.01242568567695751	-0.12500920460913745	0.5167523333117567	0.02264680349588455	-0.09194014748762924	0.5325999569693587	-0.024874632625560777	-0.11899535155124102	0.547859543595536	-0.015444618517456599	-0.11720095752562981	0.5592940388053261	0.002921307108111726	-0.10486705813357283	0.5308133483536457	0.009971984041000859	-0.07704873575094906	0.5955151026282004	0.027125121468456026	-0.0566914936347479	0.5813917319982237	0.017829924340790226	-0.05936164576639508	0.5635498940255997	0.00742149377570106	-0.06312268417757294	0.5330913796612233	-0.010912625864306386	-0.06920728858056957	0.462283081001861	-0.023011742144276925	-0.051989820119430985
21	0.7333333333333302	0.5313127372105467	-0.02599991395284193	-0.13507592349365494	0.5084113538027054	-0.024264631131946518	-0.1343579878847393	0.48122750041795515	-0.01836893256252814	-0.12039020876510254	0.469297423821353	-0.029739276587007285	-0.0789380851866392	0.5567183950848007	0.07320179012703856	-0.15001724275272516	0.5437721244845677	0.06171578765901273	-0.14468190538288184	0.5267063592237995	0.046177389897401694	-0.13471557787138994	0.5009034799147957	0.01902784889866657	-0.11444861122803207	0.5138807787072264	-0.016472813305057843	-0.13200496564204567	0.5307799382124436	-0.010812661183871086	-0.13522693491288817	0.5449459485712419	0.012516972182008729	-0.125006274096285	0.5166807306609569	0.02272697018353212	-0.09194600612560783	0.5325425312276048	-0.02479078096609738	-0.11901199966801235	0.5477757861889555	-0.01532304354940553	-0.11719268894934548	0.559207717626569	0.003054975761578621	-0.10487443709241373	0.530747717762141	0.010116372788681022	-0.07703766440335363	0.5953965981714298	0.027423293256102294	-0.056662860368236645	0.5813043968871645	0.01808389279282943	-0.05934343156676336	0.5634947213416246	0.007628772492411867	-0.06312733635763684	0.5330678328958104	-0.010762424640918172	-0.06919790292995748	0.462283081001861	-0.023011742144276925	-0.051989820119430985
22	0.7666666666666633	0.5312945039286345	-0.025879261580818824	-0.135141142515932	0.5083927368656554	-0.02416558126653673	-0.1343845943195225	0.4812045997535116	-0.018313470312104757	-0.12040682633789257	0.4693122130745657	-0.02969175455638945	-0.07894605226486434	0.5565675397220817	0.0733920845138182	-0.14997583870550463	0.5436319657406342	0.061893358198972265	-0.14464196404380053	0.5265790600733674	0.04633805211215766	-0.13468000169450378	0.5008287847435442	0.019128039778875866	-0.114427232914385	0.5138263527178484	-0.016388987807833988	-0.13200662139923786	0.5307238246344099	-0.010703224330737782	-0.1351921412173417	0.5448819298640419	0.012638225807048736	-0.12498751913850442	0.5165937986389068	0.022833407837397096	-0.09194228020522394	0.5324889916469896	-0.024708446906002712	-0.11906221524478	0.547686718783603	-0.015190549931599795	-0.11720783473752205	0.5590934717728262	0.003207544674226015	-0.10489621095680429	0.5306769926627184	0.010277542562489056	-0.07701719234343185	0.5952234517976049	0.027808911961920674	-0.056591825174487354	0.5811738701502009	0.018410609747567058	-0.059290189682963346	0.563404723467986	0.007896237311347726	-0.06310036257384394	0.5330380806874352	-0.010586605848742492	-0.06919420913885754	0.4622830810018608	-0.023011742144276925	-0.051989820119430985
23	0.7999999999999965	0.5312657089721834	-0.025755468804541437	-0.13517318387213034	0.508361993757904	-0.0240674064051995	-0.13441801851334167	0.4811713622585124	-0.01825760888089667	-0.12042745700241952	0.4693305546131217	-0.029641898445441572	-0.07895357093642069	0.5563108841840109	0.07365666649901004	-0.1499718377415687	0.5434025935870702	0.06212828844969276	-0.14463587171684994	0.5263965878083714	0.046523969071646964	-0.1346703904338007	0.5007371507214308	0.019230691937310362	-0.11441436896734192	0.5137650705457689	-0.01629971692120083	-0.13201330989901255	0.5306617011781198	-0.01059557294764582	-0.13517030448292572	0.5448050261019174	0.01276089843952477	-0.12497956582274167	0.5164995663041029	0.022942469437133794	-0.09194497064352153	0.5324331934703406	-0.024618574156753087	-0.11910367984689274	0.5475876806151282	-0.015036811099020803	-0.11722449489486031	0.5589652818138908	0.0033895278410949192	-0.10492814571203823	0.53059119705427	0.01046128656841605	-0.07700642698706683	0.595024819412023	0.028257446774833828	-0.056511545914928796	0.5810275263331468	0.018788686821081424	-0.05923521465437859	0.5633124623577246	0.008194709391277144	-0.0630765906530929	0.5330031958868332	-0.010377237790436061	-0.06918515798726899	0.4622830810018609	-0.023011742144276925	-0.051989820119430985
24	0.8333333333333297	0.5312191398803231	-0.02565626314599509	-0.13520714329021272	0.5083155688042011	-0.023978040267478934	-0.13442611836676355	0.4811192208195697	-0.018185360646160442	-0.1204395705759897	0.46937157250406236	-0.029610678969607063	-0.07895047730723925	0.5560165954668296	0.07392122590500497	-0.1500137007444023	0.5431519397734336	0.06234358202068038	-0.14467902212445383	0.5262166879611266	0.04667354319995301	-0.13469618873855327	0.5006839444638738	0.01928252763111407	-0.11441202324891292	0.5137110325837607	-0.016235025222855304	-0.13201458408839561	0.5306112853732473	-0.010524705619059077	-0.13514087672887998	0.5447493047805464	0.012843725004199863	-0.12497021266772984	0.5164201222374643	0.02302624288370267	-0.09195625096855875	0.5323679543400262	-0.02459130322233169	-0.11914823339438396	0.5474882784351901	-0.014960929664025346	-0.1172425302735699	0.5588440166068959	0.003499147260371621	-0.10497661206411601	0.530520964371974	0.010601008885087387	-0.0770107559613381	0.5948292971563278	0.02865727243643909	-0.05645363397914932	0.5808812456572023	0.019121489246054474	-0.05919602314258393	0.563219130292254	0.008449669227402118	-0.06306564293330608	0.5329710084677663	-0.010214239055448465	-0.069196964544533	0.462283081001861	-0.023011742144276925	-0.051989820119430985
25	0.8666666666666629	0.5311409599827261	-0.02565250502911054	-0.13524727402718567	0.5082389752886597	-0.023959596152601986	-0.134451562641956	0.4810409815879523	-0.018165830716293574	-0.12046866520525429	0.46939013524210693	-0.02958744887139167	-0.07895126622428927	0.5556833028778468	0.07415648187764551	-0.1501462353355375	0.5428734507743864	0.0625226440502154	-0.14480193870337638	0.5260274935116198	0.0467768129331575	-0.13478733140532762	0.5006541988642935	0.01930122874852952	-0.11441764101854474	0.5136659745726401	-0.016189434001559144	-0.1319952163117185	0.5305729671610055	-0.010490113681881408	-0.13510509565192802	0.5447242091586084	0.012881760732414538	-0.12496076786307664	0.5163698121242312	0.023072538168306345	-0.09197100967861849	0.5323435567710152	-0.02462306244707116	-0.11921679110765931	0.547426224222227	-0.014941904672175876	-0.1172704286815563	0.5587519587591361	0.00354472770156955	-0.10501677046543761	0.53048203644717	0.010683093076468753	-0.07700648545707256	0.5946597777975147	0.028996383356589883	-0.056419480020069135	0.5807563105979585	0.01939876864300466	-0.05917254951436768	0.563141198676078	0.008656902340889394	-0.06306255713995235	0.5329518687910062	-0.010102525174462473	-0.06919213227910909	0.4622830810018609	-0.023011742144276925	-0.051989820119430985
26	0.8999999999999961	0.5311475600709136	-0.025784970693942505	-0.13530551296007365	0.5082489316844536	-0.024057855161739666	-0.1344870449049657	0.48107116328377797	-0.018230545872601228	-0.12047878408472268	0.46939184829935954	-0.029585868727405845	-0.07895119994649119	0.5553628135390563	0.0742812861320293	-0.1503664452153063	0.5426083573766443	0.0625960730093649	-0.1450017791232719	0.5258547836853061	0.04677983923210363	-0.13494323297226568	0.5006351018438924	0.01923848684994825	-0.11447184682525996	0.5136448414272293	-0.016294657422592423	-0.13204526996395083	0.5305569118431704	-0.010594548100535367	-0.13512595624509777	0.5447145767434458	0.012785551585096672	-0.12500958272187218	0.5163543118264299	0.023029606093986382	-0.09204137618806796	0.5322833305717184	-0.02475085035430105	-0.11928254702983065	0.5473464018628934	-0.015039824079181002	-0.11733322613246366	0.558660111955885	0.0034658122451801388	-0.10509715784390683	0.5304669106007084	0.010694234342926184	-0.07703269374206989	0.5945349777386604	0.029223678705454198	-0.05644422220473755	0.5806666822648302	0.01957709248586867	-0.05920352555135305	0.5630813850772073	0.008784343993922	-0.0630875855164626	0.5329400263047325	-0.010055805561603903	-0.06920564951370617	0.462283081001861	-0.023011742144276925	-0.051989820119430985
27	0.9333333333333294	0.5311269210257915	-0.02598388127954207	-0.1353786548635788	0.5082332229147546	-0.02420626007327495	-0.1345309228022945	0.48108329606306155	-0.018314055672452395	-0.1204958453444872	0.46940743910113514	-0.029590797421046866	-0.07894588193006119	0.5551257015133975	0.07429374505300196	-0.15062274506940065	0.5424280759177116	0.06255838074368247	-0.14523279806044637	0.5257551834672712	0.0466885858974444	-0.13512467746983398	0.5006640760313317	0.01911741453014304	-0.11453577436468915	0.5136276965503239	-0.01645406543215408	-0.13207330794100808	0.530551581158851	-0.010776713681839828	-0.13513105332943742	0.5447375831183884	0.01260097797878984	-0.12504886948740557	0.5163735123812946	0.02294320985140269	-0.09211460690094014	0.5322106842433549	-0.02494310935285987	-0.11929456053283582	0.5472742573782158	-0.01522968780917941	-0.11736111637138191	0.5585944748787613	0.003293835624958663	-0.10515817679416184	0.5304763740776565	0.010659227553406536	-0.07705400907691273	0.5944646022253278	0.02933472313521407	-0.05650737503690939	0.5806249748489684	0.019647389001829996	-0.05926785895674874	0.563064569462275	0.00881436292003046	-0.06315240881047024	0.5329381709697281	-0.010065755921812275	-0.0692207427981607	0.4622830810018609	-0.023011742144276925	-0.051989820119430985
28	0.9666666666666625	0.5310933068566649	-0.026291305075999694	-0.13545390841963373	0.5082059576434806	-0.024441374250968956	-0.1345896156819864	0.48108681270846365	-0.01847141734724239	-0.12052790907996985	0.4694286711548268	-0.029609689377786685	-0.07893564259100633	0.554957452932163	0.07417920263264072	-0.15094108554733815	0.5423133212023731	0.062401335140122804	-0.14551819239622332	0.5257095651118021	0.046497373087307725	-0.1353501489409935	0.5007235878407424	0.018935476202493806	-0.11462145207117108	0.5136302846885185	-0.01669872568839753	-0.13210598445295346	0.5305753411000536	-0.011077467628808485	-0.13515008054825034	0.5447912168436903	0.01229709416908753	-0.12510277804470143	0.5164363429019195	0.02278770574739425	-0.09220754870275294	0.5321497835600213	-0.025224903294203266	-0.11929188261654916	0.547227171216721	-0.015525835170128899	-0.11739439507399146	0.5585717689053501	0.0030053209471199716	-0.10522573305874477	0.5305287386955174	0.010527481708277386	-0.0770881001068826	0.5944611838636471	0.02932707041143401	-0.05658175762469764	0.5806366095468837	0.019616551542272986	-0.059336202805119975	0.5630891578557355	0.008760947841273958	-0.06321625775752454	0.5329532036984395	-0.01012888686226776	-0.06920640490949181	0.4622830810018609	-0.023011742144276925	-0.051989820119430985
